<svg xmlns="http://www.w3.org/2000/svg" viewBox="0 0 64 64">
  <defs>
    <linearGradient id="khRing" x1="0" y1="0" x2="1" y2="1">
      <stop offset="0%" stop-color="#0b2b4a" />
      <stop offset="100%" stop-color="#184a7a" />
    </linearGradient>
  </defs>
  <rect width="64" height="64" rx="14" fill="#f4f7fb" />
  <g transform="translate(32 32)">
    <circle r="22" fill="url(#khRing)" />
    <circle r="16.5" fill="#0a2540" />
    <circle r="12.5" fill="#0f355c" />
    <path
      d="M0-22 3.5-19.5 7.5-20.5 9.5-16.5 13-15 12-10 15-7 12-4 12-1 8-1 6 2 2 1 -2 2 -6 1 -8-1 -12-1 -12-4 -15-7 -12-10 -13-15 -9.5-16.5 -7.5-20.5 -3.5-19.5Z"
      fill="none"
      stroke="#f6c03f"
      stroke-width="1.2"
      stroke-linejoin="round"
    />
    <text
      x="0"
      y="6"
      font-family="Arial, Helvetica, sans-serif"
      font-size="16"
      font-weight="800"
      text-anchor="middle"
      fill="#ffd165"
      letter-spacing="0.8"
    >
      KH
    </text>
  </g>
</svg>
