<svg xmlns="http://www.w3.org/2000/svg" width="860" height="480" viewBox="0 0 860 480" fill="none">
  <style>
    .text{font-family:'Inter', system-ui, -apple-system, sans-serif;font-size:13px;fill:#0f172a;}
    .muted{fill:#475569;}
  </style>
  <rect width="860" height="480" rx="16" fill="#f8fafc"/>
  <text x="26" y="32" class="text" font-weight="700">Heatmap attention (Multi-Head) - mẫu câu: "the cat chased the mouse"</text>
  <text x="26" y="52" class="text muted">Ô sáng hơn = trọng số cao hơn; mỗi hàng = query token, mỗi cột = key token.</text>

  <g transform="translate(110,100)">
    <rect x="0" y="0" width="640" height="320" rx="8" fill="#e2e8f0"/>
    <g class="text" fill="#0f172a">
      <text x="70" y="-12" text-anchor="middle">[CLS]</text>
      <text x="140" y="-12" text-anchor="middle">the</text>
      <text x="210" y="-12" text-anchor="middle">cat</text>
      <text x="280" y="-12" text-anchor="middle">chased</text>
      <text x="350" y="-12" text-anchor="middle">the</text>
      <text x="420" y="-12" text-anchor="middle">mouse</text>
      <text x="490" y="-12" text-anchor="middle">[SEP]</text>
      <text x="560" y="-12" text-anchor="middle">it</text>
    </g>
    <g class="text" fill="#0f172a">
      <text x="-12" y="28" text-anchor="end">[CLS]</text>
      <text x="-12" y="68" text-anchor="end">the</text>
      <text x="-12" y="108" text-anchor="end">cat</text>
      <text x="-12" y="148" text-anchor="end">chased</text>
      <text x="-12" y="188" text-anchor="end">the</text>
      <text x="-12" y="228" text-anchor="end">mouse</text>
      <text x="-12" y="268" text-anchor="end">[SEP]</text>
      <text x="-12" y="308" text-anchor="end">it</text>
    </g>

    <!-- simple heatmap blocks -->
    <defs>
      <linearGradient id="cell" x1="0" y1="0" x2="0" y2="1">
        <stop offset="0%" stop-color="#0ea5e9" stop-opacity="0.85"/>
        <stop offset="100%" stop-color="#22c55e" stop-opacity="0.9"/>
      </linearGradient>
    </defs>
    <g>
      <rect x="40" y="12" width="60" height="32" fill="#0f172a" fill-opacity="0.7"/>
      <rect x="110" y="12" width="60" height="32" fill="#0f172a" fill-opacity="0.15"/>
      <rect x="180" y="12" width="60" height="32" fill="#0f172a" fill-opacity="0.10"/>
      <rect x="250" y="12" width="60" height="32" fill="#0f172a" fill-opacity="0.12"/>
      <rect x="320" y="12" width="60" height="32" fill="#0f172a" fill-opacity="0.12"/>
      <rect x="390" y="12" width="60" height="32" fill="#0f172a" fill-opacity="0.12"/>
      <rect x="460" y="12" width="60" height="32" fill="#0f172a" fill-opacity="0.18"/>
      <rect x="530" y="12" width="60" height="32" fill="#0f172a" fill-opacity="0.20"/>

      <rect x="40" y="52" width="60" height="32" fill="#0f172a" fill-opacity="0.08"/>
      <rect x="110" y="52" width="60" height="32" fill="#0f172a" fill-opacity="0.65"/>
      <rect x="180" y="52" width="60" height="32" fill="#0f172a" fill-opacity="0.10"/>
      <rect x="250" y="52" width="60" height="32" fill="#0f172a" fill-opacity="0.18"/>
      <rect x="320" y="52" width="60" height="32" fill="#0f172a" fill-opacity="0.08"/>
      <rect x="390" y="52" width="60" height="32" fill="#0f172a" fill-opacity="0.06"/>
      <rect x="460" y="52" width="60" height="32" fill="#0f172a" fill-opacity="0.05"/>
      <rect x="530" y="52" width="60" height="32" fill="#0f172a" fill-opacity="0.08"/>

      <rect x="40" y="92" width="60" height="32" fill="#0f172a" fill-opacity="0.05"/>
      <rect x="110" y="92" width="60" height="32" fill="#0f172a" fill-opacity="0.12"/>
      <rect x="180" y="92" width="60" height="32" fill="#0ea5e9" fill-opacity="0.90"/>
      <rect x="250" y="92" width="60" height="32" fill="#0f172a" fill-opacity="0.20"/>
      <rect x="320" y="92" width="60" height="32" fill="#0f172a" fill-opacity="0.12"/>
      <rect x="390" y="92" width="60" height="32" fill="#0f172a" fill-opacity="0.10"/>
      <rect x="460" y="92" width="60" height="32" fill="#0f172a" fill-opacity="0.08"/>
      <rect x="530" y="92" width="60" height="32" fill="#0f172a" fill-opacity="0.05"/>

      <rect x="40" y="132" width="60" height="32" fill="#0f172a" fill-opacity="0.07"/>
      <rect x="110" y="132" width="60" height="32" fill="#0f172a" fill-opacity="0.10"/>
      <rect x="180" y="132" width="60" height="32" fill="#0f172a" fill-opacity="0.22"/>
      <rect x="250" y="132" width="60" height="32" fill="url(#cell)"/>
      <rect x="320" y="132" width="60" height="32" fill="#0f172a" fill-opacity="0.18"/>
      <rect x="390" y="132" width="60" height="32" fill="#0f172a" fill-opacity="0.08"/>
      <rect x="460" y="132" width="60" height="32" fill="#0f172a" fill-opacity="0.06"/>
      <rect x="530" y="132" width="60" height="32" fill="#0f172a" fill-opacity="0.06"/>

      <rect x="40" y="172" width="60" height="32" fill="#0f172a" fill-opacity="0.06"/>
      <rect x="110" y="172" width="60" height="32" fill="#0f172a" fill-opacity="0.12"/>
      <rect x="180" y="172" width="60" height="32" fill="#0f172a" fill-opacity="0.10"/>
      <rect x="250" y="172" width="60" height="32" fill="#0f172a" fill-opacity="0.08"/>
      <rect x="320" y="172" width="60" height="32" fill="#0f172a" fill-opacity="0.75"/>
      <rect x="390" y="172" width="60" height="32" fill="#0f172a" fill-opacity="0.12"/>
      <rect x="460" y="172" width="60" height="32" fill="#0f172a" fill-opacity="0.08"/>
      <rect x="530" y="172" width="60" height="32" fill="#0f172a" fill-opacity="0.05"/>

      <rect x="40" y="212" width="60" height="32" fill="#0f172a" fill-opacity="0.05"/>
      <rect x="110" y="212" width="60" height="32" fill="#0f172a" fill-opacity="0.10"/>
      <rect x="180" y="212" width="60" height="32" fill="#0f172a" fill-opacity="0.08"/>
      <rect x="250" y="212" width="60" height="32" fill="#0f172a" fill-opacity="0.06"/>
      <rect x="320" y="212" width="60" height="32" fill="#0f172a" fill-opacity="0.08"/>
      <rect x="390" y="212" width="60" height="32" fill="#0f172a" fill-opacity="0.70"/>
      <rect x="460" y="212" width="60" height="32" fill="#0f172a" fill-opacity="0.45"/>
      <rect x="530" y="212" width="60" height="32" fill="#0f172a" fill-opacity="0.12"/>

      <rect x="40" y="252" width="60" height="32" fill="#0f172a" fill-opacity="0.08"/>
      <rect x="110" y="252" width="60" height="32" fill="#0f172a" fill-opacity="0.12"/>
      <rect x="180" y="252" width="60" height="32" fill="#0f172a" fill-opacity="0.10"/>
      <rect x="250" y="252" width="60" height="32" fill="#0f172a" fill-opacity="0.06"/>
      <rect x="320" y="252" width="60" height="32" fill="#0f172a" fill-opacity="0.06"/>
      <rect x="390" y="252" width="60" height="32" fill="#0f172a" fill-opacity="0.10"/>
      <rect x="460" y="252" width="60" height="32" fill="#0f172a" fill-opacity="0.50"/>
      <rect x="530" y="252" width="60" height="32" fill="#0ea5e9" fill-opacity="0.90"/>
    </g>
  </g>

  <rect x="26" y="420" width="18" height="18" rx="3" fill="#0f172a" fill-opacity="0.75"/>
  <text x="48" y="433" class="text muted">Trọng số cao</text>
  <rect x="150" y="420" width="18" height="18" rx="3" fill="#0f172a" fill-opacity="0.18"/>
  <text x="172" y="433" class="text muted">Trọng số thấp</text>
</svg>
